<svg width="18" height="18" viewBox="0 0 18 18" fill="none" xmlns="http://www.w3.org/2000/svg">
<path d="M15 4.5H3C2.17157 4.5 1.5 5.17157 1.5 6V12C1.5 12.8284 2.17157 13.5 3 13.5H15C15.8284 13.5 16.5 12.8284 16.5 12V6C16.5 5.17157 15.8284 4.5 15 4.5Z" stroke="#56565D" stroke-linecap="round" stroke-linejoin="round"/>
<path d="M9 10.5C9.82843 10.5 10.5 9.82843 10.5 9C10.5 8.17157 9.82843 7.5 9 7.5C8.17157 7.5 7.5 8.17157 7.5 9C7.5 9.82843 8.17157 10.5 9 10.5Z" stroke="#56565D" stroke-linecap="round" stroke-linejoin="round"/>
<path d="M4.5 9H4.5075M13.5 9H13.5075" stroke="#56565D" stroke-linecap="round" stroke-linejoin="round"/>
</svg>
