<svg width="18" height="18" viewBox="0 0 18 18" fill="none" xmlns="http://www.w3.org/2000/svg">
<path d="M1.425 2.25H5.7C6.45587 2.25 7.18078 2.56607 7.71526 3.12868C8.24974 3.69129 8.55 4.45435 8.55 5.25V15.75C8.55 15.1533 8.3248 14.581 7.92394 14.159C7.52308 13.7371 6.9794 13.5 6.4125 13.5H1.425V2.25Z" stroke="#56565D" stroke-linecap="round" stroke-linejoin="round"/>
<path d="M15.675 2.25H11.4C10.6441 2.25 9.91923 2.56607 9.38475 3.12868C8.85027 3.69129 8.55 4.45435 8.55 5.25V15.75C8.55 15.1533 8.7752 14.581 9.17606 14.159C9.57692 13.7371 10.1206 13.5 10.6875 13.5H15.675V2.25Z" stroke="#56565D" stroke-linecap="round" stroke-linejoin="round"/>
</svg>
