<svg width="18" height="18" viewBox="0 0 18 18" fill="none" xmlns="http://www.w3.org/2000/svg">
<path d="M15.75 7.5V4.5C15.75 4.10218 15.592 3.72064 15.3107 3.43934C15.0294 3.15804 14.6478 3 14.25 3H3.75C3.35218 3 2.97064 3.15804 2.68934 3.43934C2.40804 3.72064 2.25 4.10218 2.25 4.5V15C2.25 15.825 2.925 16.5 3.75 16.5H9" stroke="#56565D" stroke-linecap="round" stroke-linejoin="round"/>
<path d="M12 1.5V4.5" stroke="#56565D" stroke-linecap="round" stroke-linejoin="round"/>
<path d="M6 1.5V4.5" stroke="#56565D" stroke-linecap="round" stroke-linejoin="round"/>
<path d="M2.25 7.5H15.75" stroke="#56565D" stroke-linecap="round" stroke-linejoin="round"/>
<path d="M15.9675 11.025C15.7119 10.7707 15.3867 10.5979 15.0329 10.5285C14.6791 10.4591 14.3127 10.4961 13.98 10.635C13.755 10.725 13.5525 10.86 13.38 11.0325L13.125 11.2875L12.8625 11.0325C12.6078 10.7769 12.2829 10.6027 11.9291 10.532C11.5753 10.4612 11.2084 10.4971 10.875 10.635C10.65 10.725 10.455 10.86 10.2825 11.0325C9.57 11.7375 9.5325 12.93 10.4325 13.8375L13.125 16.5L15.825 13.8375C16.725 12.93 16.68 11.7375 15.9675 11.0325V11.025Z" stroke="#56565D" stroke-linecap="round" stroke-linejoin="round"/>
</svg>
