<svg width="18" height="18" viewBox="0 0 18 18" fill="none" xmlns="http://www.w3.org/2000/svg">
<path d="M10.4062 3L6.84375 3L5.0625 5.10937L2.925 5.10937C2.54707 5.10937 2.18461 5.25753 1.91737 5.52126C1.65013 5.78498 1.5 6.14266 1.5 6.51562L1.5 12.8438C1.5 13.2167 1.65013 13.5744 1.91737 13.8381C2.18461 14.1018 2.54707 14.25 2.925 14.25L14.325 14.25C14.7029 14.25 15.0654 14.1018 15.3326 13.8381C15.5999 13.5744 15.75 13.2167 15.75 12.8437L15.75 6.51562C15.75 6.14266 15.5999 5.78498 15.3326 5.52126C15.0654 5.25753 14.7029 5.10937 14.325 5.10937L12.1875 5.10937L10.4062 3Z" stroke="#56565D" stroke-linecap="round" stroke-linejoin="round"/>
<path d="M8.625 11.25C9.66053 11.25 10.5 10.4105 10.5 9.375C10.5 8.33947 9.66053 7.5 8.625 7.5C7.58947 7.5 6.75 8.33947 6.75 9.375C6.75 10.4105 7.58947 11.25 8.625 11.25Z" stroke="#56565D" stroke-linecap="round" stroke-linejoin="round"/>
</svg>
