<svg width="18" height="18" viewBox="0 0 18 18" fill="none" xmlns="http://www.w3.org/2000/svg">
<path d="M9.22218 1.12599C9.23547 1.12584 9.24877 1.12569 9.26246 1.12553C9.56786 1.1228 9.86325 1.1286 10.1639 1.19107C10.1804 1.19444 10.1968 1.19781 10.2137 1.20129C10.7527 1.31508 11.2241 1.57775 11.7124 1.83309C11.7262 1.8403 11.74 1.84751 11.7542 1.85493C11.9465 1.95544 12.1358 2.06076 12.3239 2.16963C12.367 2.19448 12.4102 2.21891 12.4536 2.24324C12.6436 2.35005 12.8303 2.46178 13.0159 2.57673C13.0593 2.60349 13.1028 2.63001 13.1464 2.65644C13.3637 2.78835 13.5782 2.92462 13.7909 3.06436C13.8056 3.07397 13.8202 3.08358 13.8353 3.09347C14.2132 3.34253 14.5829 3.60647 14.9463 3.87817C14.9576 3.88658 14.9689 3.895 14.9805 3.90367C15.2515 4.10597 15.5235 4.31297 15.7361 4.58449C15.7478 4.59855 15.7596 4.6126 15.7717 4.62708C16.1417 5.07105 16.4161 5.60209 16.5953 6.15933C16.6004 6.17527 16.6056 6.19121 16.6109 6.20763C16.6899 6.46029 16.7411 6.70833 16.7616 6.97313C16.764 7.00117 16.7663 7.02919 16.7687 7.05722C16.7759 7.144 16.7825 7.23082 16.7891 7.31766C16.7912 7.34495 16.7933 7.37224 16.7954 7.39953C16.8473 8.0837 16.8673 8.76802 16.866 9.45425C16.8658 9.54192 16.8659 9.62958 16.8661 9.71725C16.8671 10.3151 16.8564 10.9133 16.8075 11.5092C16.8034 11.5588 16.7997 11.6085 16.796 11.6582C16.7894 11.7452 16.7824 11.8322 16.7751 11.9192C16.7722 11.9538 16.7695 11.9885 16.7668 12.0232C16.709 12.7799 16.4453 13.4771 16.0432 14.1045C16.0363 14.1152 16.0295 14.1259 16.0224 14.1369C15.8906 14.3408 15.7358 14.5241 15.5752 14.7034C15.5646 14.7153 15.554 14.7273 15.543 14.7396C15.3762 14.9219 15.1711 15.0643 14.9756 15.2101C14.9672 15.2163 14.9589 15.2225 14.9503 15.2289C14.775 15.3601 14.5974 15.4877 14.4189 15.6141C14.4051 15.6239 14.3913 15.6336 14.3771 15.6437C14.1818 15.7819 13.9856 15.9175 13.7843 16.0461C13.7463 16.0704 13.7085 16.0951 13.6707 16.1198C13.364 16.3207 13.0539 16.5149 12.7379 16.6995C12.7214 16.7092 12.7049 16.7188 12.6879 16.7288C12.4567 16.8643 12.2238 16.9957 11.9883 17.1229C11.9413 17.1485 11.8946 17.1746 11.8478 17.2007C11.1369 17.5977 10.4308 17.9668 9.60819 17.9893C9.5857 17.9899 9.5857 17.9899 9.56276 17.9906C8.66645 18.0114 7.97995 17.7272 7.19449 17.3148C7.14833 17.2906 7.10213 17.2665 7.05593 17.2424C6.86764 17.1438 6.68207 17.041 6.49791 16.9342C6.4223 16.8904 6.34611 16.8479 6.27004 16.805C6.20786 16.7699 6.14571 16.7347 6.08357 16.6995C6.07206 16.693 6.06054 16.6865 6.04868 16.6797C5.7139 16.4897 5.3876 16.2815 5.06811 16.0646C5.02996 16.0388 4.99165 16.0133 4.95327 15.9879C4.64278 15.7824 4.3379 15.5676 4.03607 15.3483C4.0243 15.3397 4.01254 15.3312 4.00041 15.3224C3.91443 15.2599 3.82883 15.1969 3.74357 15.1333C3.73141 15.1242 3.71926 15.1152 3.70673 15.1059C3.56854 15.0025 3.43695 14.8967 3.31453 14.7732C3.28346 14.742 3.25211 14.7127 3.2189 14.6842C3.16323 14.6347 3.11774 14.5775 3.07082 14.5191C3.05272 14.4975 3.05272 14.4975 3.03426 14.4755C2.74131 14.1243 2.74131 14.1243 2.73445 13.9874C2.74376 13.9139 2.76869 13.8759 2.8222 13.8281C2.90649 13.795 2.98455 13.7929 3.07391 13.7933C3.09513 13.7933 3.09513 13.7933 3.11679 13.7932C3.14661 13.7932 3.17643 13.7933 3.20624 13.7934C3.25156 13.7936 3.29687 13.7934 3.34218 13.7932C3.37128 13.7932 3.40038 13.7933 3.42948 13.7933C3.44957 13.7932 3.44957 13.7932 3.47007 13.7931C3.69572 13.7948 3.81619 13.8939 3.98054 14.0447C4.08483 14.1393 4.19627 14.2235 4.30798 14.3081C4.34197 14.3339 4.37584 14.3598 4.40969 14.3858C4.96556 14.8115 5.54839 15.1988 6.14207 15.5632C6.15779 15.5729 6.17352 15.5825 6.18972 15.5925C6.78509 15.9575 7.39598 16.3235 8.0375 16.5918C8.10552 16.6203 8.17129 16.6502 8.23619 16.686C8.54765 16.8537 8.90116 16.93 9.24994 16.9335C9.26271 16.9336 9.27547 16.9338 9.28863 16.9339C9.56619 16.9365 9.83381 16.9353 10.1054 16.8684C10.1179 16.8656 10.1303 16.8628 10.1431 16.8599C10.3948 16.802 10.6218 16.6804 10.8513 16.5613C10.8663 16.5535 10.8814 16.5457 10.8968 16.5377C11.0117 16.4782 11.1264 16.4185 11.241 16.3586C11.2589 16.3492 11.2768 16.3399 11.2948 16.3305C11.5185 16.2136 11.7402 16.0938 11.9587 15.9665C11.9883 15.9493 12.018 15.9321 12.0477 15.9151C12.2956 15.7727 12.5397 15.6241 12.7818 15.4711C12.7968 15.4616 12.8119 15.4521 12.8273 15.4423C13.0184 15.3214 13.208 15.198 13.3961 15.0719C13.4056 15.0655 13.4152 15.0591 13.4251 15.0525C13.747 14.8368 14.0651 14.6138 14.3759 14.3809C14.3874 14.3723 14.3988 14.3638 14.4106 14.3549C14.4774 14.305 14.5438 14.2546 14.61 14.2037C14.6285 14.1895 14.6471 14.1753 14.6657 14.1612C15.0464 13.8721 15.3211 13.4584 15.5177 13.0143C15.5271 12.9932 15.5365 12.9722 15.5461 12.9512C15.6055 12.8209 15.6567 12.69 15.6968 12.5517C15.7001 12.5402 15.7035 12.5287 15.707 12.5169C15.7778 12.2601 15.7964 11.9974 15.8174 11.7322C15.8206 11.6928 15.8238 11.6534 15.827 11.614C15.8492 11.3388 15.8696 11.0637 15.8823 10.7879C15.8829 10.7756 15.8835 10.7633 15.8841 10.7506C15.8953 10.508 15.8993 10.266 15.8994 10.0231C15.8994 9.98594 15.8995 9.94877 15.8995 9.91159C15.8996 9.83409 15.8997 9.75659 15.8997 9.67909C15.8997 9.60112 15.8998 9.52314 15.9 9.44517C15.9015 8.82362 15.8858 8.20659 15.8367 7.58715C15.832 7.52764 15.8275 7.46812 15.823 7.40859C15.8095 7.23297 15.7946 7.05781 15.7722 6.88316C15.7705 6.86996 15.7689 6.85676 15.7671 6.84316C15.7056 6.38992 15.4965 5.91763 15.2388 5.55185C15.2289 5.53726 15.2189 5.52267 15.2087 5.50764C15.025 5.24351 14.8216 5.01956 14.5643 4.8347C14.5256 4.80669 14.4872 4.77807 14.4488 4.74948C14.4172 4.72594 14.3855 4.7025 14.3538 4.67908C14.3109 4.64738 14.2681 4.6155 14.2254 4.58347C13.0956 3.74023 11.8712 3.01069 10.5734 2.37339C10.5612 2.3674 10.549 2.36142 10.5364 2.35525C10.3691 2.2744 10.1983 2.22605 10.0177 2.18913C10.0056 2.1866 9.99357 2.18406 9.98115 2.18145C9.46769 2.07806 8.87412 2.11506 8.38866 2.32103C8.37608 2.32635 8.36349 2.33167 8.35053 2.33716C8.21323 2.39613 8.08024 2.46364 7.94734 2.5327C7.92133 2.54613 7.89531 2.55955 7.86929 2.57298C7.50891 2.75934 7.15124 2.95134 6.8002 3.15649C6.77157 3.17311 6.74295 3.18972 6.71433 3.20633C6.34716 3.42018 5.98636 3.64474 5.6302 3.87817C5.61147 3.89038 5.61147 3.89038 5.59237 3.90283C5.39113 4.03423 5.19401 4.17219 4.99675 4.31002C4.98366 4.31916 4.97056 4.3283 4.95707 4.33771C4.78463 4.45814 4.6141 4.58096 4.44557 4.70733C4.43213 4.71735 4.4187 4.72737 4.40486 4.7377C4.14429 4.93139 4.14429 4.93139 3.90262 5.14974C3.77216 5.27403 3.64335 5.32039 3.46901 5.31733C3.45194 5.31734 3.43486 5.31736 3.41727 5.31737C3.38151 5.3173 3.34574 5.31701 3.30998 5.3165C3.25529 5.31577 3.20064 5.31587 3.14595 5.31607C3.11104 5.3159 3.07613 5.31568 3.04123 5.31541C3.01682 5.31545 3.01682 5.31545 2.99192 5.31549C2.90205 5.31377 2.84607 5.3091 2.77832 5.24475C2.74281 5.18883 2.73856 5.15652 2.73976 5.09036C2.75935 4.99522 2.82421 4.92039 2.8807 4.84553C2.89014 4.83256 2.89959 4.8196 2.90932 4.80624C2.9381 4.7675 2.96768 4.72967 2.9977 4.69198C3.0044 4.68356 3.01109 4.67514 3.018 4.66646C3.14394 4.50873 3.27166 4.36496 3.42592 4.23686C3.44383 4.22199 3.4617 4.20706 3.47953 4.19209C3.62471 4.0704 3.77328 3.95645 3.92735 3.84752C3.98239 3.8086 4.03631 3.76843 4.09 3.7275C4.6774 3.28217 5.30259 2.8834 5.93321 2.50936C5.97865 2.48239 6.02401 2.4553 6.06935 2.42815C6.36654 2.25051 6.66756 2.08115 6.97152 1.91665C7.02493 1.88771 7.07821 1.85858 7.13114 1.82871C7.72445 1.49397 8.29139 1.23566 8.96469 1.145C8.98287 1.1423 9.00104 1.1396 9.01976 1.13682C9.08722 1.12805 9.15425 1.12662 9.22218 1.12599Z" fill="url(#paint0_linear_16_781)"/>
<path d="M5.51319 6.67276C5.52858 6.68384 5.54396 6.69493 5.55981 6.70635C5.79029 6.94832 5.82381 7.30012 5.8258 7.62476C5.82381 7.94951 5.7925 8.28764 5.57027 8.534C5.35223 8.7508 5.05481 8.78124 4.76732 8.77637C4.50936 8.76544 4.24751 8.70575 4.06532 8.49999C3.88408 8.26026 3.85521 7.96195 3.85595 7.66681C3.856 7.62887 3.85565 7.59096 3.85528 7.55302C3.85416 7.25819 3.89581 6.95739 4.094 6.73232C4.43529 6.39016 5.13831 6.39983 5.51319 6.67276ZM4.51098 7.07444C4.43081 7.1796 4.42866 7.33427 4.42797 7.46263C4.42789 7.47498 4.42781 7.48733 4.42772 7.50005C4.42758 7.52613 4.42749 7.55221 4.42743 7.57829C4.42729 7.61755 4.42684 7.65679 4.42637 7.69605C4.42271 7.98104 4.42271 7.98104 4.54794 8.2236C4.68988 8.30488 4.87674 8.30733 5.03154 8.26499C5.10227 8.23828 5.15078 8.19656 5.19144 8.13147C5.20553 8.0932 5.20553 8.0932 5.21521 8.05182C5.21872 8.0383 5.22222 8.02478 5.22584 8.01085C5.27915 7.73939 5.30211 7.3343 5.16934 7.08674C5.11919 7.01737 5.05251 6.99244 4.97207 6.97985C4.92909 6.97734 4.88622 6.97701 4.84319 6.97698C4.82632 6.97669 4.82632 6.97669 4.80911 6.97641C4.69571 6.9761 4.59657 6.99073 4.51098 7.07444Z" fill="#366C9E"/>
<path d="M10.2356 9.69509C10.2472 9.69503 10.2588 9.69498 10.2708 9.69493C10.2954 9.69485 10.3199 9.69482 10.3445 9.69482C10.3822 9.69479 10.4199 9.69451 10.4576 9.69422C10.4814 9.69417 10.5052 9.69414 10.5291 9.69413C10.5404 9.69402 10.5517 9.69391 10.5634 9.69379C10.6432 9.69415 10.6432 9.69415 10.6758 9.72837C10.6703 9.80529 10.6516 9.87699 10.6296 9.95024C10.6264 9.96119 10.6231 9.97213 10.6198 9.98341C10.609 10.0197 10.5981 10.0559 10.5872 10.0921C10.5833 10.1048 10.5795 10.1175 10.5756 10.1305C10.3347 10.9258 10.0426 11.712 9.70051 12.4654C9.69312 12.4817 9.68572 12.498 9.6781 12.5148C9.67126 12.5296 9.66442 12.5444 9.65738 12.5597C9.6484 12.5792 9.6484 12.5792 9.63923 12.599C9.62282 12.6304 9.62282 12.6304 9.59357 12.6612C9.55056 12.6638 9.50894 12.6647 9.46594 12.6642C9.44701 12.6641 9.44701 12.6641 9.4277 12.664C9.38732 12.6638 9.34694 12.6635 9.30655 12.6631C9.27921 12.6629 9.25186 12.6628 9.22452 12.6627C9.15741 12.6623 9.0903 12.6618 9.02319 12.6612C9.00841 12.6126 9.0075 12.6025 9.02676 12.5525C9.03591 12.5339 9.04524 12.5155 9.05473 12.4972C9.0597 12.4872 9.06467 12.4772 9.06979 12.467C9.08578 12.435 9.10201 12.4032 9.11826 12.3713C9.12875 12.3505 9.13922 12.3297 9.14968 12.3088C9.15483 12.2986 9.15999 12.2883 9.1653 12.2777C9.17569 12.257 9.18605 12.2363 9.19638 12.2155C9.22161 12.165 9.24728 12.1148 9.27422 12.0652C9.28393 12.0466 9.29365 12.028 9.30335 12.0094C9.31207 11.9933 9.32079 11.9772 9.32978 11.9606C9.36627 11.8359 9.29231 11.6962 9.25108 11.5795C9.24107 11.5508 9.23107 11.5222 9.22106 11.4935C9.21037 11.4629 9.19965 11.4324 9.1889 11.4019C9.16645 11.338 9.14411 11.2741 9.12179 11.2102C9.09045 11.1206 9.05907 11.0309 9.02766 10.9413C8.96006 10.7483 8.89272 10.5553 8.8255 10.3622C8.80331 10.2984 8.78108 10.2347 8.75882 10.171C8.7483 10.1409 8.7378 10.1108 8.72731 10.0807C8.71455 10.044 8.70177 10.0074 8.68895 9.97082C8.66105 9.89059 8.63452 9.81095 8.61369 9.72837C8.68372 9.69161 8.78983 9.70823 8.86768 9.70764C8.89272 9.70739 8.91776 9.70697 8.9428 9.70638C8.97887 9.70554 9.01493 9.70521 9.05102 9.70498C9.06221 9.70463 9.07341 9.70429 9.08495 9.70393C9.1166 9.70406 9.1166 9.70406 9.16944 9.71302C9.20617 9.76561 9.22656 9.82224 9.24732 9.88336C9.25367 9.90194 9.26003 9.92052 9.26657 9.93966C9.27341 9.9599 9.28024 9.98014 9.28707 10.0004C9.29426 10.0215 9.30146 10.0426 9.30867 10.0637C9.32766 10.1194 9.34656 10.1752 9.36544 10.2309C9.38424 10.2864 9.40311 10.3418 9.42198 10.3972C9.44399 10.4619 9.46599 10.5265 9.48795 10.5912C9.54684 10.7645 9.60651 10.9375 9.66669 11.1103C9.83426 10.6726 9.9813 10.2227 10.092 9.7652C10.1152 9.67528 10.1567 9.6952 10.2356 9.69509Z" fill="#F45162"/>
<path d="M3.872 9.69563C3.88887 9.6956 3.88887 9.6956 3.90609 9.69558C3.92989 9.69557 3.95369 9.6956 3.97749 9.69566C4.01399 9.69575 4.05048 9.69566 4.08697 9.69557C4.11007 9.69558 4.13317 9.6956 4.15627 9.69563C4.1727 9.69558 4.1727 9.69558 4.18946 9.69553C4.26671 9.6959 4.26671 9.6959 4.29932 9.71302C4.2914 9.81666 4.27134 9.90756 4.24031 10.0061C4.23577 10.0208 4.23124 10.0355 4.22657 10.0506C4.21167 10.0987 4.19656 10.1468 4.18141 10.1948C4.1736 10.2197 4.1736 10.2197 4.16563 10.2451C3.9266 11.0067 3.64484 11.7532 3.31762 12.4779C3.30748 12.5004 3.30748 12.5004 3.29715 12.5233C3.28777 12.5438 3.28777 12.5438 3.2782 12.5648C3.27273 12.5768 3.26726 12.5888 3.26162 12.6011C3.24632 12.6304 3.24632 12.6304 3.21707 12.6612C3.17545 12.664 3.13529 12.6651 3.09367 12.6647C3.08145 12.6647 3.06922 12.6647 3.05663 12.6647C3.03076 12.6646 3.00489 12.6645 2.97903 12.6643C2.93936 12.664 2.89969 12.664 2.86001 12.664C2.83492 12.6639 2.80982 12.6638 2.78472 12.6637C2.7728 12.6637 2.76089 12.6637 2.74862 12.6637C2.66471 12.6629 2.66471 12.6629 2.63207 12.6458C2.64051 12.5919 2.65364 12.5494 2.67817 12.5012C2.68464 12.4884 2.69111 12.4756 2.69777 12.4624C2.70475 12.4488 2.71172 12.4352 2.71891 12.4212C2.72604 12.4071 2.73317 12.393 2.74053 12.3785C2.75539 12.3491 2.77028 12.3198 2.78522 12.2905C2.81353 12.2349 2.84168 12.1792 2.86973 12.1235C2.88224 12.0986 2.8948 12.0738 2.9074 12.049C2.91308 12.0377 2.91877 12.0264 2.92463 12.0148C2.92958 12.005 2.93453 11.9953 2.93963 11.9852C2.94431 11.9752 2.94899 11.9652 2.95382 11.9548C2.96319 11.9379 2.96319 11.9379 2.97275 11.9207C2.98816 11.857 2.96558 11.8089 2.94337 11.7501C2.93872 11.7371 2.93408 11.7242 2.92929 11.7109C2.91905 11.6824 2.90869 11.654 2.89824 11.6257C2.87536 11.5636 2.85303 11.5013 2.83064 11.4391C2.81842 11.4051 2.80617 11.3711 2.79389 11.3372C2.74431 11.1999 2.69593 11.0622 2.64807 10.9243C2.64441 10.9138 2.64076 10.9033 2.63699 10.8924C2.61487 10.8286 2.59278 10.7649 2.57069 10.7011C2.5463 10.6307 2.52187 10.5603 2.49742 10.4899C2.48405 10.4514 2.47071 10.4129 2.45739 10.3744C2.42396 10.2779 2.38996 10.1817 2.35493 10.0858C2.34797 10.0666 2.34101 10.0474 2.33405 10.0282C2.32096 9.99217 2.30771 9.95618 2.2943 9.92026C2.28849 9.90421 2.28268 9.88816 2.2767 9.87162C2.27152 9.85761 2.26635 9.84361 2.26102 9.82918C2.25064 9.78476 2.25481 9.75667 2.26644 9.71302C2.34062 9.71112 2.41479 9.70973 2.48898 9.7088C2.51422 9.70842 2.53946 9.70789 2.56469 9.70723C2.60096 9.7063 2.63721 9.70586 2.67349 9.70552C2.69042 9.70493 2.69042 9.70493 2.7077 9.70432C2.73963 9.7043 2.73963 9.7043 2.79294 9.71302C2.82712 9.76249 2.84772 9.8149 2.86767 9.87203C2.87335 9.88816 2.87902 9.90429 2.88487 9.92091C2.8909 9.93831 2.89693 9.95571 2.90315 9.97363C2.90955 9.99193 2.91596 10.0102 2.92256 10.0291C2.93966 10.0779 2.95668 10.1268 2.97368 10.1757C2.99041 10.2238 3.00724 10.2718 3.02406 10.3199C3.11419 10.5777 3.20262 10.8362 3.29019 11.095C3.33806 11.0196 3.36223 10.9331 3.39166 10.8483C3.39516 10.8383 3.39867 10.8282 3.40228 10.8178C3.51672 10.4883 3.62617 10.1549 3.70337 9.81337C3.7064 9.80019 3.70943 9.787 3.71255 9.77342C3.71505 9.76203 3.71755 9.75064 3.72012 9.7389C3.7417 9.67559 3.81864 9.69547 3.872 9.69563Z" fill="#F45162"/>
<path d="M6.81683 9.69561C6.83584 9.69551 6.83584 9.69551 6.85523 9.69541C6.87613 9.69542 6.87613 9.69542 6.89746 9.69543C6.91211 9.69538 6.92676 9.69533 6.94185 9.69528C6.99046 9.69513 7.03906 9.6951 7.08767 9.69508C7.12133 9.69504 7.15499 9.69498 7.18865 9.69493C7.25927 9.69484 7.32989 9.69481 7.40051 9.69482C7.49121 9.69482 7.5819 9.69461 7.67259 9.69435C7.74212 9.69418 7.81165 9.69414 7.88118 9.69415C7.91463 9.69413 7.94808 9.69407 7.98152 9.69395C8.0282 9.6938 8.07488 9.69384 8.12156 9.69393C8.13549 9.69385 8.14943 9.69376 8.16379 9.69367C8.17646 9.69374 8.18913 9.6938 8.20219 9.69387C8.21323 9.69386 8.22427 9.69385 8.23565 9.69384C8.2627 9.69766 8.2627 9.69766 8.29195 9.72837C8.29559 9.7652 8.29559 9.7652 8.29556 9.81241C8.29562 9.83026 8.29568 9.84811 8.29575 9.8665C8.29567 9.88618 8.29558 9.90586 8.2955 9.92613C8.29551 9.94699 8.29554 9.96784 8.29558 9.9887C8.29565 10.0454 8.29554 10.1021 8.29539 10.1589C8.29527 10.2181 8.29529 10.2774 8.2953 10.3366C8.29528 10.4361 8.29516 10.5357 8.29496 10.6352C8.29473 10.7504 8.29465 10.8656 8.29466 10.9808C8.29467 11.0914 8.29459 11.2021 8.29447 11.3127C8.29442 11.3599 8.29439 11.4071 8.29439 11.4542C8.29437 11.5097 8.29428 11.5652 8.29414 11.6207C8.29407 11.6509 8.29408 11.6811 8.29409 11.7113C8.29403 11.7291 8.29397 11.7469 8.2939 11.7653C8.29388 11.7808 8.29385 11.7964 8.29383 11.8124C8.29195 11.8473 8.29195 11.8473 8.27732 11.8627C8.23744 11.8643 8.19793 11.8648 8.15804 11.8647C8.1401 11.8648 8.1401 11.8648 8.12181 11.8648C8.09648 11.8648 8.07115 11.8648 8.04583 11.8647C8.00692 11.8646 7.96802 11.8647 7.92912 11.8648C7.90457 11.8648 7.88003 11.8648 7.85548 11.8647C7.84377 11.8648 7.83205 11.8648 7.81998 11.8648C7.73788 11.8645 7.73788 11.8645 7.72157 11.8473C7.72018 11.8262 7.71979 11.8049 7.71981 11.7837C7.71978 11.7631 7.71978 11.7631 7.71975 11.7421C7.71983 11.7194 7.71983 11.7194 7.71991 11.6962C7.71991 11.6803 7.71991 11.6644 7.7199 11.6481C7.71991 11.5953 7.72003 11.5426 7.72014 11.4898C7.72017 11.4533 7.72019 11.4169 7.72021 11.3804C7.72026 11.2842 7.72041 11.188 7.72057 11.0918C7.72072 10.9937 7.72078 10.8956 7.72086 10.7975C7.72101 10.6049 7.72127 10.4123 7.72157 10.2197C7.56713 10.2197 7.41269 10.2197 7.25357 10.2197C7.24874 10.2957 7.24392 10.3717 7.23895 10.4501C7.22983 10.528 7.22012 10.6056 7.20878 10.6833C7.20725 10.6939 7.20571 10.7045 7.20413 10.7155C7.0766 11.5894 7.0766 11.5894 6.94645 11.8627C6.76305 11.8627 6.57965 11.8627 6.3907 11.8627C6.37429 11.7766 6.37429 11.7766 6.39292 11.715C6.39902 11.6939 6.39902 11.6939 6.40524 11.6724C6.40979 11.657 6.41434 11.6415 6.41903 11.6257C6.58038 11.0481 6.66167 10.4511 6.70792 9.85243C6.71244 9.80522 6.71731 9.75937 6.72707 9.71302C6.76065 9.69539 6.77949 9.6957 6.81683 9.69561Z" fill="#F45162"/>
<path d="M12.8778 9.69508C12.8887 9.69503 12.8997 9.69498 12.9109 9.69493C12.934 9.69485 12.9571 9.69482 12.9802 9.69482C13.0157 9.69478 13.0511 9.69451 13.0865 9.69421C13.109 9.69417 13.1314 9.69414 13.1538 9.69412C13.1645 9.69401 13.1751 9.6939 13.1861 9.69379C13.2611 9.69415 13.2611 9.69415 13.2937 9.72837C13.2967 9.77111 13.2979 9.81235 13.2979 9.85511C13.298 9.86823 13.2981 9.88134 13.2982 9.89485C13.2984 9.92339 13.2985 9.95194 13.2986 9.98048C13.2987 10.0257 13.299 10.071 13.2994 10.1162C13.3001 10.2125 13.3006 10.3087 13.301 10.4049C13.3015 10.5161 13.3021 10.6273 13.303 10.7384C13.3033 10.7829 13.3034 10.8273 13.3035 10.8717C13.3037 10.8993 13.3039 10.9268 13.3041 10.9543C13.3041 10.9727 13.3041 10.9727 13.3041 10.9914C13.3053 11.1123 13.3175 11.2316 13.3961 11.3253C13.5436 11.41 13.7112 11.3919 13.8723 11.3713C13.8843 11.3699 13.8962 11.3684 13.9085 11.3669C13.9376 11.3633 13.9667 11.3597 13.9957 11.356C13.9957 11.3476 13.9956 11.3393 13.9956 11.3307C13.995 11.1274 13.9945 10.9242 13.9942 10.7209C13.994 10.6227 13.9938 10.5244 13.9935 10.4261C13.9932 10.3313 13.993 10.2365 13.9929 10.1417C13.9929 10.1055 13.9928 10.0693 13.9926 10.033C13.9924 9.98245 13.9924 9.93186 13.9924 9.88127C13.9923 9.86616 13.9922 9.85105 13.9921 9.83548C13.9921 9.82175 13.9921 9.80801 13.9922 9.79386C13.9922 9.78188 13.9921 9.76991 13.9921 9.75757C13.9957 9.72837 13.9957 9.72837 14.0249 9.69766C14.0636 9.69479 14.1006 9.69374 14.1393 9.69412C14.1505 9.69413 14.1618 9.69414 14.1735 9.69415C14.1973 9.69419 14.2212 9.69431 14.245 9.6945C14.2817 9.69478 14.3184 9.69482 14.355 9.69481C14.3782 9.69489 14.4013 9.69498 14.4244 9.69508C14.441 9.69511 14.441 9.69511 14.4579 9.69514C14.5351 9.69588 14.5351 9.69588 14.5514 9.71302C14.5529 9.73925 14.5532 9.76554 14.5532 9.79181C14.5532 9.81742 14.5532 9.81742 14.5533 9.84356C14.5532 9.8719 14.5532 9.8719 14.5531 9.90082C14.5531 9.92059 14.5531 9.94036 14.5531 9.96073C14.5531 10.0151 14.553 10.0695 14.5529 10.1239C14.5528 10.1806 14.5528 10.2374 14.5528 10.2942C14.5528 10.4017 14.5526 10.5093 14.5525 10.6168C14.5523 10.7393 14.5523 10.8617 14.5522 10.9841C14.552 11.236 14.5518 11.488 14.5514 11.7399C14.5281 11.7498 14.5047 11.7597 14.4813 11.7696C14.4682 11.7752 14.4552 11.7807 14.4418 11.7864C14.401 11.803 14.3606 11.8156 14.3181 11.8264C14.3032 11.8302 14.2882 11.834 14.2728 11.8379C14.2573 11.8416 14.2419 11.8454 14.226 11.8493C14.2098 11.8532 14.1936 11.8572 14.177 11.8613C14.0632 11.8888 13.9513 11.9133 13.8348 11.9241C13.8187 11.9256 13.8187 11.9256 13.8023 11.9272C13.5199 11.952 13.2017 11.9555 12.9719 11.7552C12.8203 11.6088 12.7618 11.3964 12.7379 11.1871C12.736 11.1379 12.7361 11.0888 12.7363 11.0396C12.7363 11.0252 12.7363 11.0108 12.7363 10.996C12.7363 10.9487 12.7364 10.9014 12.7365 10.8541C12.7365 10.8212 12.7366 10.7883 12.7366 10.7555C12.7366 10.6691 12.7368 10.5827 12.7369 10.4964C12.7371 10.4082 12.7372 10.32 12.7372 10.2318C12.7374 10.0588 12.7376 9.88593 12.7379 9.71302C12.7825 9.68964 12.8289 9.69516 12.8778 9.69508Z" fill="#F45162"/>
<path d="M7.10069 6.47074C7.35116 6.46309 7.59939 6.50357 7.83857 6.58063C7.85111 6.6175 7.85518 6.63614 7.84259 6.67361C7.83685 6.68463 7.83111 6.69565 7.8252 6.707C7.81889 6.71935 7.81257 6.73169 7.80606 6.7444C7.7993 6.75718 7.79253 6.76996 7.78555 6.78312C7.77913 6.7956 7.7727 6.80808 7.76607 6.82094C7.74657 6.85868 7.7268 6.89625 7.70695 6.93379C7.69994 6.94706 7.69293 6.96034 7.68571 6.97401C7.66844 7.00669 7.65114 7.03934 7.63382 7.07198C7.60853 7.06719 7.58324 7.06239 7.55795 7.05759C7.54387 7.05492 7.52979 7.05224 7.51528 7.04949C7.48966 7.04452 7.46409 7.03921 7.43866 7.03328C7.36922 7.02012 7.29927 7.02244 7.22889 7.02208C7.2137 7.02176 7.19852 7.02145 7.18287 7.02112C7.06203 7.02048 6.95743 7.03678 6.85321 7.10365C6.69814 7.28584 6.7315 7.58208 6.7417 7.80902C6.75397 7.93647 6.78049 8.06349 6.86784 8.15738C6.96885 8.23843 7.08683 8.24655 7.2097 8.24471C7.22434 8.24461 7.23899 8.24451 7.25409 8.24441C7.3655 8.24233 7.47091 8.22835 7.57983 8.20446C7.63686 8.19224 7.69302 8.18445 7.75082 8.17753C7.7718 8.23511 7.79263 8.29275 7.8133 8.35044C7.82036 8.37004 7.82745 8.38963 7.83459 8.40919C7.84486 8.43739 7.85497 8.46566 7.86508 8.49393C7.8712 8.51089 7.87733 8.52786 7.88364 8.54534C7.89636 8.58963 7.89991 8.62305 7.89707 8.66889C7.53104 8.82276 7.04668 8.84969 6.67451 8.70692C6.45906 8.60886 6.31525 8.45053 6.22611 8.22282C6.09534 7.83223 6.09618 7.32504 6.26273 6.9453C6.36087 6.75372 6.51086 6.60689 6.71045 6.5409C6.83983 6.502 6.96631 6.47696 7.10069 6.47074Z" fill="#366C9E"/>
<path d="M5.44007 9.63145C5.45869 9.63151 5.4773 9.63158 5.49648 9.63164C5.71638 9.63439 5.91994 9.66668 6.12744 9.74373C6.11832 9.80776 6.09763 9.85774 6.0698 9.91533C6.057 9.94198 6.057 9.94198 6.04395 9.96917C6.03492 9.98775 6.02588 10.0063 6.01684 10.0249C6.00774 10.0438 5.99865 10.0627 5.98956 10.0816C5.96735 10.1277 5.94506 10.1737 5.92269 10.2197C5.85123 10.2121 5.78108 10.2031 5.71063 10.1881C5.51852 10.1541 5.31839 10.1555 5.14026 10.2456C5.04016 10.3429 5.02164 10.483 5.01292 10.6205C5.01151 10.6703 5.01113 10.7199 5.01137 10.7696C5.01145 10.7872 5.01152 10.8047 5.01159 10.8227C5.01382 10.991 5.01799 11.179 5.13294 11.3099C5.29349 11.4406 5.52561 11.4083 5.71512 11.3845C5.77134 11.377 5.82635 11.3678 5.88156 11.3541C5.93182 11.342 5.97381 11.3379 6.02507 11.3406C6.063 11.436 6.09803 11.5325 6.13201 11.6295C6.13609 11.6407 6.14016 11.6519 6.14436 11.6634C6.16571 11.7253 6.1775 11.767 6.15669 11.832C6.07041 11.8672 5.98536 11.8872 5.89436 11.903C5.88356 11.9049 5.87276 11.9068 5.86163 11.9087C5.50014 11.9691 5.08531 11.9855 4.77006 11.76C4.54094 11.5726 4.45951 11.2999 4.42415 11.0082C4.42019 10.9603 4.41773 10.9127 4.41632 10.8646C4.41573 10.8516 4.41515 10.8385 4.41455 10.8251C4.40669 10.5082 4.4532 10.1714 4.65398 9.92415C4.86717 9.68914 5.14091 9.63003 5.44007 9.63145Z" fill="#F45162"/>
<path d="M11.148 9.69543C11.162 9.69538 11.1761 9.69533 11.1906 9.69528C11.2373 9.69513 11.284 9.6951 11.3307 9.69508C11.3631 9.69504 11.3954 9.69498 11.4278 9.69493C11.4957 9.69484 11.5635 9.69481 11.6314 9.69482C11.7185 9.69482 11.8057 9.69461 11.8928 9.69435C11.9597 9.69418 12.0265 9.69414 12.0933 9.69415C12.1254 9.69413 12.1576 9.69407 12.1897 9.69395C12.2346 9.6938 12.2794 9.69384 12.3243 9.69393C12.3377 9.69385 12.3511 9.69376 12.3649 9.69367C12.4567 9.69416 12.4567 9.69416 12.4893 9.72837C12.4835 9.79051 12.461 9.84535 12.4386 9.9028C12.4314 9.92118 12.4243 9.93957 12.4169 9.95852C12.4114 9.97273 12.4114 9.97273 12.4057 9.98722C12.3942 10.0164 12.3829 10.0456 12.3716 10.0748C12.3158 10.2176 12.3158 10.2176 12.2992 10.2351C12.2754 10.2365 12.2516 10.2369 12.2277 10.2368C12.2125 10.2368 12.1973 10.2368 12.1816 10.2368C12.165 10.2367 12.1485 10.2367 12.1314 10.2366C12.1061 10.2366 12.1061 10.2366 12.0803 10.2365C12.0262 10.2364 11.9721 10.2362 11.918 10.236C11.8815 10.236 11.8449 10.2359 11.8083 10.2358C11.7184 10.2357 11.6286 10.2354 11.5387 10.2351C11.5387 10.2435 11.5387 10.2518 11.5387 10.2605C11.5391 10.464 11.5393 10.6674 11.5395 10.8709C11.5395 10.9693 11.5396 11.0677 11.5398 11.1661C11.54 11.261 11.54 11.3559 11.5401 11.4508C11.5401 11.4871 11.5402 11.5234 11.5402 11.5596C11.5403 11.6103 11.5404 11.6609 11.5404 11.7115C11.5404 11.7267 11.5405 11.7419 11.5405 11.7575C11.5405 11.7712 11.5405 11.7849 11.5405 11.7991C11.5405 11.8111 11.5405 11.823 11.5405 11.8354C11.5387 11.8627 11.5387 11.8627 11.5241 11.8781C11.4852 11.8796 11.4468 11.8802 11.408 11.8801C11.3905 11.8801 11.3905 11.8801 11.3727 11.8801C11.3481 11.8801 11.3235 11.8801 11.2988 11.8801C11.261 11.88 11.2231 11.8801 11.1853 11.8802C11.1614 11.8801 11.1375 11.8801 11.1137 11.8801C11.1023 11.8801 11.0909 11.8802 11.0791 11.8802C10.9993 11.8798 10.9993 11.8798 10.9829 11.8627C10.9815 11.8349 10.9812 11.8071 10.9812 11.7792C10.9812 11.7611 10.9811 11.743 10.9811 11.7244C10.9812 11.7043 10.9812 11.6843 10.9813 11.6636C10.9813 11.6424 10.9813 11.6213 10.9813 11.6001C10.9813 11.5424 10.9814 11.4847 10.9815 11.4271C10.9816 11.3669 10.9816 11.3066 10.9816 11.2464C10.9816 11.1323 10.9817 11.0183 10.9819 10.9042C10.9821 10.7743 10.9821 10.6445 10.9822 10.5146C10.9824 10.2474 10.9826 9.98021 10.9829 9.71302C11.0336 9.68643 11.0922 9.6954 11.148 9.69543Z" fill="#F45162"/>
<path d="M2.36108 6.54801C2.3747 6.54806 2.38832 6.54812 2.40236 6.54818C2.41662 6.54817 2.43089 6.54817 2.44559 6.54817C2.49299 6.54818 2.54039 6.5483 2.58779 6.54842C2.62056 6.54845 2.65333 6.54847 2.6861 6.54849C2.77254 6.54854 2.85897 6.54869 2.94541 6.54886C3.03353 6.54902 3.12166 6.54909 3.20979 6.54917C3.38284 6.54933 3.55589 6.5496 3.72894 6.54992C3.7449 6.62 3.7384 6.65326 3.71083 6.7199C3.70366 6.73746 3.69649 6.75502 3.6891 6.7731C3.6776 6.80039 3.6776 6.80039 3.66587 6.82823C3.65838 6.84653 3.65089 6.86484 3.64317 6.88371C3.58777 7.01793 3.58777 7.01793 3.55344 7.07198C3.52161 7.07752 3.52161 7.07752 3.48166 7.07721C3.45926 7.07721 3.45926 7.07721 3.43641 7.0772C3.42025 7.07697 3.40408 7.07673 3.38743 7.07648C3.37091 7.07642 3.3544 7.07635 3.33739 7.07629C3.28448 7.07603 3.23158 7.07545 3.17868 7.07486C3.14288 7.07463 3.10708 7.07442 3.07128 7.07423C2.98337 7.07372 2.89547 7.07295 2.80757 7.07198C2.80758 7.08036 2.8076 7.08873 2.80761 7.09736C2.80793 7.30085 2.80817 7.50434 2.80833 7.70783C2.8084 7.80624 2.80851 7.90464 2.80867 8.00305C2.80883 8.09793 2.80892 8.19281 2.80896 8.28769C2.80898 8.32398 2.80904 8.36026 2.80912 8.39655C2.80922 8.44718 2.80924 8.49781 2.80923 8.54845C2.80928 8.56361 2.80934 8.57878 2.80939 8.5944C2.80937 8.60812 2.80935 8.62183 2.80933 8.63596C2.80934 8.64795 2.80936 8.65994 2.80937 8.67229C2.80757 8.6996 2.80757 8.6996 2.79294 8.71496C2.75289 8.71632 2.7132 8.71672 2.67315 8.71645C2.66116 8.71643 2.64917 8.71641 2.63681 8.71639C2.59836 8.7163 2.55992 8.71611 2.52147 8.71591C2.49546 8.71584 2.46946 8.71577 2.44346 8.7157C2.37958 8.71554 2.3157 8.71527 2.25182 8.71496C2.25148 8.43494 2.25122 8.15492 2.25106 7.8749C2.25099 7.74489 2.25088 7.61488 2.25072 7.48488C2.25057 7.3716 2.25048 7.25833 2.25044 7.14505C2.25042 7.08504 2.25038 7.02502 2.25027 6.96501C2.25017 6.90859 2.25014 6.85216 2.25017 6.79574C2.25016 6.76503 2.25008 6.73432 2.25 6.70361C2.25002 6.6855 2.25004 6.66739 2.25006 6.64873C2.25005 6.63289 2.25003 6.61705 2.25002 6.60074C2.25375 6.52723 2.30217 6.54811 2.36108 6.54801Z" fill="#366C9E"/>
<defs>
<linearGradient id="paint0_linear_16_781" x1="9.99447" y1="7.77548" x2="9.99447" y2="9.99587" gradientUnits="userSpaceOnUse">
<stop stop-color="#F45363"/>
<stop offset="1" stop-color="#356DA0"/>
</linearGradient>
</defs>
</svg>
