<svg width="18" height="18" viewBox="0 0 18 18" fill="none" xmlns="http://www.w3.org/2000/svg">
<g clip-path="url(#clip0_259_3241)">
<path d="M10.0721 1.75135L14.462 2.02229L16.8852 5.79592L12.4952 5.52499L10.0721 1.75135Z" stroke="#56565D" stroke-linecap="round" stroke-linejoin="round"/>
<path d="M11.0413 3.26082L10.058 5.01217C10.4899 6.66967 12.5338 7.88304 14.1458 7.43891L15.1292 5.68756" stroke="#56565D" stroke-linecap="round" stroke-linejoin="round"/>
<path d="M1.28696 7.45111L4.89145 4.86034L9.06986 6.27086L5.46538 8.86163L1.28696 7.45111Z" stroke="#56565D" stroke-linecap="round" stroke-linejoin="round"/>
<path d="M2.95833 8.01524L3.2453 10.0159C4.58491 11.0392 6.91978 10.6852 7.91504 9.30773L7.62807 7.30709" stroke="#56565D" stroke-linecap="round" stroke-linejoin="round"/>
<path d="M3 15.005V12.975M3 17V16.16M7.28571 15.775V13.85M11.1429 12.695V10M15 15.18V12.765M15 11.54V10.98M7.28571 12.765V11.925" stroke="#56565D" stroke-width="0.6" stroke-linecap="round" stroke-linejoin="round"/>
</g>
<defs>
<clipPath id="clip0_259_3241">
<rect width="18" height="18" fill="white"/>
</clipPath>
</defs>
</svg>
