<svg width="18" height="18" viewBox="0 0 18 18" fill="none" xmlns="http://www.w3.org/2000/svg">
<path d="M14.25 10.5C15.3675 9.405 16.5 8.0925 16.5 6.375C16.5 5.28098 16.0654 4.23177 15.2918 3.45818C14.5182 2.6846 13.469 2.25 12.375 2.25C11.055 2.25 10.125 2.625 9 3.75C7.875 2.625 6.945 2.25 5.625 2.25C4.53098 2.25 3.48177 2.6846 2.70818 3.45818C1.9346 4.23177 1.5 5.28098 1.5 6.375C1.5 8.1 2.625 9.4125 3.75 10.5L9 15.75L14.25 10.5Z" stroke="#56565D" stroke-linecap="round" stroke-linejoin="round"/>
<path d="M9 3.75L6.78 5.97C6.62762 6.12128 6.50667 6.30122 6.42414 6.49945C6.34161 6.69767 6.29912 6.91028 6.29912 7.125C6.29912 7.33972 6.34161 7.55232 6.42414 7.75055C6.50667 7.94878 6.62762 8.12872 6.78 8.28C7.395 8.895 8.3775 8.9175 9.03 8.3325L10.5825 6.9075C10.9716 6.5544 11.4783 6.35879 12.0038 6.35879C12.5292 6.35879 13.0359 6.5544 13.425 6.9075L15.645 8.9025" stroke="#56565D" stroke-linecap="round" stroke-linejoin="round"/>
<path d="M13.5 11.25L12 9.75" stroke="#56565D" stroke-linecap="round" stroke-linejoin="round"/>
<path d="M11.25 13.5L9.75 12" stroke="#56565D" stroke-linecap="round" stroke-linejoin="round"/>
</svg>
