<svg width="84" height="40" viewBox="0 0 84 40" fill="none" xmlns="http://www.w3.org/2000/svg">
<g filter="url(#filter0_b_462_261)">
<rect width="83.3935" height="40" rx="20" fill="#56565D"/>
<path d="M14.4231 8.47907C16.3114 8.4756 18.1996 8.47279 20.0879 8.47114C20.9648 8.47035 21.8417 8.46928 22.7185 8.46752C23.4834 8.46599 24.2483 8.46501 25.0131 8.46467C25.4176 8.46447 25.8221 8.46401 26.2265 8.46289C26.6084 8.46184 26.9902 8.46153 27.372 8.46176C27.5111 8.46172 27.6501 8.46142 27.7892 8.46083C28.9982 8.45592 30.2013 8.52721 31.3849 8.79467C31.4927 8.81896 31.4927 8.81896 31.6027 8.84375C33.3296 9.25668 34.8691 10.1098 36.2426 11.2334C36.3037 11.2822 36.3648 11.331 36.4277 11.3813C36.8533 11.7379 37.181 12.1723 37.5216 12.6105C37.573 12.6721 37.6243 12.7336 37.6771 12.797C39.6035 15.1278 40.1106 18.4343 39.8776 21.3803C39.6618 23.7989 38.7598 25.9855 37.2207 27.8357C37.1564 27.9186 37.0921 28.0015 37.0279 28.0844C36.7863 28.3616 36.5238 28.5955 36.2426 28.8303C36.172 28.8897 36.1014 28.9491 36.0286 29.0103C33.5355 31.0589 30.528 31.5938 27.4052 31.6002C27.2968 31.6005 27.2968 31.6005 27.1863 31.6009C26.8051 31.602 26.4238 31.6027 26.0426 31.603C25.6504 31.6035 25.2582 31.6053 24.866 31.6075C24.5626 31.6089 24.2592 31.6093 23.9557 31.6094C23.8111 31.6096 23.6665 31.6103 23.5219 31.6113C23.3198 31.6126 23.1177 31.6124 22.9155 31.6119C22.8566 31.6126 22.7977 31.6133 22.737 31.6141C22.2817 31.6106 21.8572 31.53 21.4939 31.229C21.4435 31.1636 21.4435 31.1636 21.3922 31.0969C21.3574 31.0537 21.3227 31.0105 21.2869 30.966C21.0579 30.6026 21.0222 30.2729 21.0241 29.8491C21.0237 29.7905 21.0234 29.7318 21.023 29.6714C21.0221 29.4753 21.0222 29.2791 21.0223 29.0829C21.0219 28.9422 21.0214 28.8014 21.0208 28.6606C21.0195 28.2784 21.0191 27.8962 21.019 27.5139C21.0189 27.275 21.0186 27.0362 21.0182 26.7973C21.0168 25.9637 21.0162 25.1301 21.0163 24.2964C21.0164 23.5198 21.0148 22.7431 21.0124 21.9665C21.0105 21.2993 21.0096 20.6322 21.0097 19.9651C21.0098 19.5668 21.0094 19.1685 21.0078 18.7702C21.0063 18.3955 21.0063 18.0208 21.0074 17.6461C21.0075 17.5088 21.0072 17.3715 21.0063 17.2342C21.0051 17.0462 21.0058 16.8584 21.007 16.6705C21.0062 16.6166 21.0054 16.5627 21.0046 16.5071C21.0108 16.0544 21.1492 15.6523 21.4567 15.3212C21.8097 15.0105 22.0671 14.9728 22.5216 14.9748C22.6682 14.9752 22.6682 14.9752 22.8177 14.9756C22.921 14.9762 23.0242 14.9769 23.1274 14.9775C23.2315 14.9779 23.3356 14.9782 23.4396 14.9786C23.6945 14.9795 23.9494 14.9807 24.2042 14.9823C24.2044 15.0464 24.2045 15.1105 24.2046 15.1765C24.2074 16.7372 24.2118 18.2979 24.2181 19.8585C24.2211 20.6132 24.2235 21.368 24.2246 22.1227C24.2256 22.7806 24.2276 23.4385 24.2309 24.0964C24.2326 24.4447 24.2338 24.793 24.2337 25.1413C24.2337 25.4693 24.235 25.7974 24.2374 26.1254C24.2381 26.2456 24.2382 26.3657 24.2378 26.4859C24.2337 27.3589 24.2337 27.3589 24.5804 28.1418C24.8897 28.4409 25.1268 28.533 25.5478 28.5379C25.6222 28.5388 25.6967 28.5398 25.7735 28.5408C25.8543 28.5414 25.9352 28.542 26.0185 28.5425C26.1028 28.5432 26.187 28.5438 26.2739 28.5444C26.4533 28.5455 26.6327 28.5463 26.8122 28.5469C26.9927 28.5478 27.1733 28.5493 27.3538 28.5516C30.0202 28.5853 32.481 28.0307 34.4771 26.1227C36.0522 24.4271 36.7546 22.1027 36.7128 19.7961C36.5876 17.8005 36.0919 15.9275 34.813 14.3702C34.7678 14.311 34.7226 14.2517 34.6761 14.1906C33.3536 12.5402 31.1712 11.8071 29.1701 11.5394C28.6569 11.4933 28.1431 11.496 27.6284 11.4976C27.4829 11.497 27.3373 11.4962 27.1918 11.4952C26.8027 11.4931 26.4135 11.4929 26.0244 11.4929C25.6155 11.4927 25.2066 11.4907 24.7977 11.489C24.0261 11.4859 23.2544 11.4843 22.4828 11.4833C21.6032 11.4821 20.7236 11.4791 19.844 11.4761C18.037 11.4698 16.2301 11.4659 14.4231 11.4629C14.4231 10.4782 14.4231 9.49357 14.4231 8.47907Z" fill="white"/>
<path d="M14.4235 12.3045C16.3092 12.2973 18.1948 12.292 20.0805 12.2887C20.9562 12.2871 21.8319 12.2849 22.7076 12.2814C23.4715 12.2784 24.2355 12.2764 24.9994 12.2757C25.4033 12.2753 25.8072 12.2744 26.211 12.2722C26.5925 12.27 26.974 12.2694 27.3554 12.2699C27.4942 12.2698 27.6329 12.2692 27.7717 12.268C30.0793 12.2492 32.218 12.8739 33.9106 14.5233C34.1531 14.7923 34.3739 15.0718 34.5877 15.3649C34.6285 15.4187 34.6692 15.4725 34.7112 15.528C35.94 17.2577 36.1788 19.6787 35.8803 21.7344C35.5491 23.6227 34.5648 25.3659 33.0312 26.5064C31.2808 27.6856 29.4719 28.0326 27.3985 28.0229C27.1825 28.0222 26.9665 28.0245 26.7505 28.0269C26.6114 28.027 26.4722 28.027 26.3331 28.0267C26.2375 28.028 26.2375 28.028 26.14 28.0293C25.7365 28.0245 25.4977 27.963 25.1828 27.6827C24.899 27.347 24.9302 27.0079 24.943 26.5877C24.944 26.5237 24.945 26.4598 24.946 26.3939C24.9487 26.2369 24.9527 26.08 24.9571 25.923C25.0042 25.9228 25.0513 25.9225 25.0998 25.9222C25.5968 25.919 26.0936 25.9136 26.5905 25.9072C26.7752 25.905 26.9599 25.9034 27.1445 25.9023C29.0612 25.8938 29.0612 25.8938 30.854 25.2584C30.9031 25.2321 30.9522 25.2058 31.0028 25.1788C32.296 24.463 33.0802 23.329 33.5203 21.9159C33.9545 20.4012 33.7425 18.6095 33.0829 17.2011C32.9249 16.93 32.7487 16.6827 32.5563 16.436C32.5178 16.3835 32.4794 16.331 32.4399 16.277C31.6111 15.2172 30.2399 14.6107 28.9448 14.4467C28.7279 14.4326 28.5112 14.4272 28.2941 14.4225C28.2278 14.4209 28.1615 14.4193 28.0932 14.4177C27.866 14.4125 27.6389 14.408 27.4118 14.4037C27.2922 14.4014 27.2922 14.4014 27.1702 14.399C25.3365 14.3651 23.5025 14.3571 21.6685 14.3526C21.3339 14.3517 20.9992 14.3503 20.6646 14.3485C20.2642 14.3464 19.8639 14.3455 19.4635 14.3454C19.3137 14.3452 19.164 14.3446 19.0142 14.3436C18.8072 14.3423 18.6002 14.3425 18.3932 14.343C18.3327 14.3423 18.2722 14.3416 18.2099 14.3408C17.8486 14.3436 17.5877 14.382 17.2826 14.5998C17.0755 14.9431 17.0278 15.2051 17.024 15.6049C17.0232 15.6581 17.0224 15.7113 17.0216 15.7661C17.0192 15.9433 17.0183 16.1206 17.0175 16.2979C17.016 16.4253 17.0145 16.5528 17.0129 16.6802C17.0088 17.0256 17.0061 17.3709 17.0036 17.7163C17.0008 18.0775 16.9967 18.4386 16.9928 18.7998C16.9855 19.4834 16.9794 20.167 16.9736 20.8507C16.967 21.6291 16.9592 22.4075 16.9512 23.1859C16.9349 24.7868 16.9201 26.3878 16.9064 27.9888C16.6259 27.9955 16.3453 27.9995 16.0647 28.0031C15.9853 28.005 15.9059 28.007 15.8241 28.0089C15.7088 28.0101 15.7088 28.0101 15.5912 28.0112C15.5207 28.0124 15.4501 28.0136 15.3775 28.0148C15.0402 27.9712 14.849 27.8163 14.6286 27.561C14.4585 27.2193 14.4535 26.9475 14.4531 26.5696C14.4518 26.4959 14.4506 26.4223 14.4493 26.3464C14.4456 26.0982 14.4441 25.85 14.4426 25.6018C14.4405 25.4225 14.4383 25.2433 14.4361 25.0641C14.4292 24.4578 14.426 23.8516 14.4235 23.2452C14.4233 23.191 14.4231 23.1367 14.4228 23.0808C14.4157 21.414 14.4158 19.7472 14.4181 18.0804C14.419 17.4482 14.4194 16.8161 14.4197 16.184C14.4205 14.8908 14.4218 13.5977 14.4235 12.3045Z" fill="white"/>
<path d="M19.5396 15.0373C19.9127 15.2405 20.158 15.4926 20.2917 15.9004C20.2987 16.0846 20.3015 16.2666 20.3007 16.4508C20.3008 16.5073 20.3008 16.5637 20.3009 16.6218C20.301 16.8115 20.3006 17.0011 20.3002 17.1907C20.3002 17.3264 20.3002 17.4621 20.3002 17.5978C20.3003 17.9667 20.2998 18.3356 20.2993 18.7046C20.2988 19.0899 20.2988 19.4753 20.2987 19.8607C20.2985 20.5906 20.2978 21.3206 20.2971 22.0506C20.2962 22.8815 20.2958 23.7124 20.2955 24.5434C20.2947 26.2529 20.2933 27.9624 20.2917 29.672C20.1363 29.4643 20.0004 29.2548 19.8684 29.0312C19.5116 28.485 18.9564 28.1507 18.3354 27.9888C18.16 27.9625 17.9844 27.937 17.8088 27.9123C17.8017 26.3441 17.7964 24.7759 17.7932 23.2077C17.7916 22.4795 17.7895 21.7514 17.7861 21.0232C17.7831 20.3886 17.7811 19.7539 17.7804 19.1193C17.7801 18.7832 17.7791 18.4472 17.7769 18.1112C17.7749 17.7948 17.7743 17.4784 17.7747 17.162C17.7746 17.046 17.774 16.93 17.7729 16.814C17.7714 16.6553 17.7717 16.4967 17.7726 16.338C17.7723 16.2493 17.772 16.1606 17.7717 16.0692C17.8302 15.6818 18.0215 15.4458 18.3025 15.1879C18.6657 14.9322 19.122 14.885 19.5396 15.0373Z" fill="white"/>
<path d="M62.7003 28.7273H55.9844V11.2727H62.6321C64.4276 11.2727 65.9787 11.6222 67.2855 12.321C68.598 13.0142 69.6094 14.0142 70.3196 15.321C71.0355 16.6222 71.3935 18.1818 71.3935 20C71.3935 21.8182 71.0384 23.3807 70.3281 24.6875C69.6179 25.9886 68.6122 26.9886 67.3111 27.6875C66.0099 28.3807 64.473 28.7273 62.7003 28.7273ZM60.723 24.7045H62.5298C63.3935 24.7045 64.1293 24.5653 64.7372 24.2869C65.3509 24.0085 65.8168 23.5284 66.1349 22.8466C66.4588 22.1648 66.6207 21.2159 66.6207 20C66.6207 18.7841 66.456 17.8352 66.1264 17.1534C65.8026 16.4716 65.3253 15.9915 64.6946 15.7131C64.0696 15.4347 63.3026 15.2955 62.3935 15.2955H60.723V24.7045Z" fill="white"/>
<path d="M53.7386 11.2727V28.7273H49V11.2727H53.7386Z" fill="white"/>
</g>
<defs>
<filter id="filter0_b_462_261" x="-4" y="-4" width="91.3935" height="48" filterUnits="userSpaceOnUse" color-interpolation-filters="sRGB">
<feFlood flood-opacity="0" result="BackgroundImageFix"/>
<feGaussianBlur in="BackgroundImageFix" stdDeviation="2"/>
<feComposite in2="SourceAlpha" operator="in" result="effect1_backgroundBlur_462_261"/>
<feBlend mode="normal" in="SourceGraphic" in2="effect1_backgroundBlur_462_261" result="shape"/>
</filter>
</defs>
</svg>
