<svg width="18" height="18" viewBox="0 0 18 18" fill="none" xmlns="http://www.w3.org/2000/svg">
<path d="M4.5 13.5H10.5" stroke="#56565D" stroke-linecap="round" stroke-linejoin="round"/>
<path d="M2.25 16.5H15.75" stroke="#56565D" stroke-linecap="round" stroke-linejoin="round"/>
<path d="M10.5 16.5C11.8924 16.5 13.2277 15.9469 14.2123 14.9623C15.1969 13.9777 15.75 12.6424 15.75 11.25C15.75 9.85761 15.1969 8.52226 14.2123 7.53769C13.2277 6.55312 11.8924 6 10.5 6H9.75" stroke="#56565D" stroke-linecap="round" stroke-linejoin="round"/>
<path d="M6.75 10.5H8.25" stroke="#56565D" stroke-linecap="round" stroke-linejoin="round"/>
<path d="M6.75 9C6.35218 9 5.97064 8.84196 5.68934 8.56066C5.40804 8.27936 5.25 7.89782 5.25 7.5V4.5H9.75V7.5C9.75 7.89782 9.59196 8.27936 9.31066 8.56066C9.02936 8.84196 8.64782 9 8.25 9H6.75Z" stroke="#56565D" stroke-linecap="round" stroke-linejoin="round"/>
<path d="M9 4.5V2.25C9 2.05109 8.92098 1.86032 8.78033 1.71967C8.63968 1.57902 8.44891 1.5 8.25 1.5H6.75C6.55109 1.5 6.36032 1.57902 6.21967 1.71967C6.07902 1.86032 6 2.05109 6 2.25V4.5" stroke="#56565D" stroke-linecap="round" stroke-linejoin="round"/>
</svg>
