<svg width="18" height="18" viewBox="0 0 18 18" fill="none" xmlns="http://www.w3.org/2000/svg">
<path d="M1.50397 1.59369C2.676 1.59147 3.84803 1.58966 5.02005 1.5886C5.56433 1.58809 6.1086 1.5874 6.65287 1.58627C7.12761 1.58529 7.60236 1.58466 8.0771 1.58444C8.32815 1.58431 8.57919 1.58401 8.83024 1.58329C9.06724 1.58262 9.30424 1.58242 9.54124 1.58257C9.62755 1.58254 9.71385 1.58235 9.80016 1.58197C10.5506 1.57881 11.2974 1.62464 12.032 1.79658C12.0989 1.8122 12.0989 1.8122 12.1672 1.82813C13.239 2.09359 14.1946 2.64205 15.0471 3.36432C15.085 3.3957 15.1229 3.42709 15.162 3.45942C15.4262 3.68869 15.6296 3.96789 15.841 4.24963C15.8729 4.2892 15.9047 4.32876 15.9375 4.36952C17.1332 5.86785 17.4479 7.9935 17.3033 9.88736C17.1694 11.4422 16.6095 12.8478 15.6542 14.0373C15.6143 14.0905 15.5744 14.1438 15.5345 14.1971C15.3846 14.3753 15.2216 14.5257 15.0471 14.6767C15.0033 14.7148 14.9594 14.753 14.9143 14.7923C13.3668 16.1093 11.5001 16.4532 9.5618 16.4573C9.49456 16.4575 9.49456 16.4575 9.42595 16.4577C9.18933 16.4584 8.95272 16.4589 8.7161 16.4591C8.47266 16.4594 8.22924 16.4606 7.98581 16.462C7.79746 16.4629 7.60912 16.4631 7.42078 16.4632C7.33102 16.4634 7.24126 16.4637 7.1515 16.4644C7.02604 16.4652 6.9006 16.4651 6.77514 16.4648C6.73857 16.4653 6.702 16.4657 6.66433 16.4662C6.38171 16.464 6.11827 16.4122 5.89272 16.2187C5.86148 16.1766 5.86148 16.1766 5.8296 16.1337C5.80805 16.106 5.7865 16.0782 5.76429 16.0496C5.62215 15.816 5.6 15.604 5.60112 15.3316C5.60091 15.2939 5.6007 15.2562 5.60048 15.2173C5.59989 15.0912 5.59997 14.9651 5.60004 14.839C5.59976 14.7485 5.59945 14.6581 5.59909 14.5676C5.59827 14.3218 5.59805 14.0761 5.59799 13.8304C5.59792 13.6768 5.59772 13.5233 5.59748 13.3697C5.59661 12.8338 5.59623 12.2979 5.5963 11.762C5.59636 11.2627 5.59538 10.7634 5.5939 10.2642C5.59268 9.8353 5.59218 9.40644 5.59224 8.97758C5.59226 8.72153 5.592 8.46549 5.59101 8.20944C5.5901 7.96854 5.5901 7.72767 5.59077 7.48678C5.59087 7.39851 5.59065 7.31024 5.59009 7.22197C5.58936 7.10117 5.5898 6.98042 5.59052 6.85962C5.59004 6.82495 5.58956 6.79029 5.58906 6.75457C5.59287 6.46357 5.67881 6.20504 5.86966 5.99224C6.08877 5.79245 6.24854 5.76824 6.53065 5.76954C6.62163 5.76978 6.62163 5.76978 6.71445 5.77002C6.77851 5.77043 6.84257 5.77085 6.90663 5.77127C6.97124 5.77151 7.03585 5.77174 7.10045 5.77194C7.25865 5.77252 7.41684 5.77333 7.57503 5.77434C7.5751 5.81555 7.57517 5.85676 7.57524 5.89921C7.57697 6.9025 7.57972 7.90578 7.58362 8.90906C7.58548 9.39424 7.58699 9.87941 7.58769 10.3646C7.58829 10.7876 7.58955 11.2105 7.59159 11.6334C7.59265 11.8573 7.59338 12.0812 7.59333 12.3051C7.5933 12.516 7.59413 12.7269 7.59563 12.9378C7.59603 13.015 7.59611 13.0923 7.59585 13.1695C7.59332 13.7307 7.59332 13.7307 7.80853 14.234C8.00048 14.4263 8.14764 14.4855 8.40894 14.4886C8.45517 14.4893 8.5014 14.4899 8.54903 14.4905C8.59922 14.4909 8.64942 14.4913 8.70113 14.4916C8.75343 14.492 8.80574 14.4924 8.85962 14.4928C8.971 14.4935 9.08238 14.4941 9.19375 14.4944C9.30583 14.495 9.4179 14.496 9.52996 14.4975C11.1849 14.5192 12.7123 14.1626 13.9513 12.936C14.9289 11.846 15.3649 10.3517 15.339 8.8689C15.2613 7.58607 14.9536 6.38198 14.1598 5.38087C14.1317 5.34276 14.1037 5.30466 14.0748 5.2654C13.2539 4.20443 11.8993 3.73315 10.6573 3.56106C10.3388 3.5314 10.0199 3.53317 9.70038 3.53421C9.61005 3.53378 9.51972 3.53326 9.42939 3.53267C9.18784 3.53131 8.94632 3.53113 8.70477 3.53118C8.45098 3.53102 8.19719 3.52976 7.94339 3.52862C7.46445 3.52664 6.9855 3.52563 6.50655 3.52498C5.96059 3.5242 5.41463 3.52231 4.86866 3.52033C3.7471 3.51629 2.62554 3.51377 1.50397 3.51187C1.50397 2.87887 1.50397 2.24587 1.50397 1.59369Z" fill="#56565D"/>
<path d="M1.50424 4.05289C2.67465 4.04828 3.84506 4.04482 5.01548 4.0427C5.55902 4.04169 6.10255 4.04031 6.64609 4.03805C7.12025 4.03608 7.59441 4.03482 8.06858 4.03438C8.31927 4.03413 8.56995 4.03353 8.82063 4.03209C9.05741 4.03074 9.29417 4.03035 9.53094 4.03064C9.61706 4.03059 9.70318 4.0302 9.78929 4.02944C11.2216 4.01735 12.5491 4.41891 13.5997 5.47923C13.7502 5.65221 13.8873 5.83187 14.02 6.02025C14.0452 6.05487 14.0705 6.08949 14.0966 6.12515C14.8593 7.23706 15.0075 8.79345 14.8223 10.115C14.6166 11.3288 14.0057 12.4495 13.0538 13.1827C11.9674 13.9408 10.8446 14.1638 9.55769 14.1576C9.42358 14.1571 9.28955 14.1586 9.15545 14.1601C9.0691 14.1602 8.98275 14.1602 8.89641 14.16C8.83708 14.1609 8.83708 14.1609 8.77656 14.1617C8.52607 14.1586 8.37785 14.119 8.1824 13.9389C8.00626 13.723 8.02565 13.5051 8.03354 13.2349C8.03418 13.1938 8.03481 13.1527 8.03546 13.1104C8.0371 13.0094 8.03962 12.9085 8.0423 12.8077C8.07155 12.8075 8.10079 12.8073 8.13092 12.8071C8.43936 12.805 8.74776 12.8016 9.05618 12.7975C9.1708 12.7961 9.28542 12.795 9.40004 12.7943C10.5897 12.7889 10.5897 12.7889 11.7024 12.3804C11.7329 12.3635 11.7634 12.3466 11.7949 12.3292C12.5975 11.8691 13.0843 11.1401 13.3574 10.2316C13.6269 9.25792 13.4953 8.1061 13.0859 7.20067C12.9879 7.02644 12.8785 6.86742 12.759 6.70883C12.7352 6.6751 12.7114 6.64137 12.6868 6.60662C12.1724 5.92536 11.3213 5.53544 10.5174 5.43005C10.3828 5.42098 10.2483 5.41748 10.1135 5.41448C10.0724 5.41345 10.0312 5.41242 9.98884 5.41136C9.84787 5.40802 9.70689 5.40514 9.5659 5.40238C9.49169 5.40089 9.49169 5.40089 9.41598 5.39937C8.27783 5.37758 7.13944 5.37243 6.00113 5.36949C5.79342 5.36894 5.58572 5.36806 5.37802 5.36691C5.12951 5.36556 4.88101 5.36496 4.6325 5.36492C4.53955 5.36479 4.4466 5.36441 4.35365 5.36376C4.22515 5.36293 4.09667 5.36301 3.96817 5.36333C3.93063 5.36288 3.89309 5.36242 3.85441 5.36196C3.63013 5.36371 3.46822 5.38845 3.27886 5.52841C3.1503 5.74913 3.12072 5.91758 3.11836 6.17457C3.11786 6.20876 3.11736 6.24296 3.11684 6.27819C3.11534 6.39214 3.11481 6.50608 3.11428 6.62005C3.11339 6.70198 3.11245 6.78392 3.11145 6.86585C3.10892 7.08786 3.10723 7.30988 3.10569 7.5319C3.10394 7.76408 3.10141 7.99625 3.09896 8.22842C3.09445 8.66789 3.09063 9.10736 3.08707 9.54684C3.08297 10.0472 3.0781 10.5476 3.07317 11.048C3.06303 12.0772 3.05387 13.1064 3.04535 14.1356C2.87121 14.1399 2.69707 14.1425 2.52289 14.1449C2.47362 14.1461 2.42435 14.1473 2.37358 14.1486C2.30202 14.1493 2.30202 14.1493 2.22901 14.15C2.18523 14.1508 2.14146 14.1516 2.09635 14.1524C1.88698 14.1243 1.76834 14.0248 1.63152 13.8607C1.52595 13.641 1.52285 13.4662 1.52259 13.2233C1.52182 13.1759 1.52105 13.1286 1.52026 13.0798C1.51795 12.9202 1.51701 12.7607 1.5161 12.6011C1.5148 12.4859 1.51344 12.3707 1.51203 12.2555C1.50776 11.8657 1.50578 11.476 1.50424 11.0862C1.5041 11.0513 1.50395 11.0164 1.5038 10.9805C1.49936 9.90898 1.49944 8.83747 1.50088 7.76594C1.50141 7.35958 1.50166 6.95321 1.50189 6.54684C1.50237 5.71553 1.50318 4.88421 1.50424 4.05289Z" fill="#56565D"/>
<path d="M4.67972 5.8097C4.91131 5.94034 5.06357 6.1024 5.14654 6.36456C5.15089 6.48299 5.15263 6.59998 5.15216 6.7184C5.1522 6.75468 5.15224 6.79096 5.15228 6.82834C5.15236 6.95023 5.1521 7.07211 5.15184 7.194C5.15183 7.28124 5.15184 7.36849 5.15187 7.45573C5.15188 7.6929 5.1516 7.93006 5.15128 8.16723C5.15099 8.41496 5.15096 8.66269 5.1509 8.91043C5.15076 9.37969 5.15037 9.84895 5.14991 10.3182C5.14938 10.8524 5.14913 11.3866 5.14889 11.9208C5.1484 13.0197 5.14758 14.1187 5.14654 15.2177C5.05011 15.0842 4.96576 14.9495 4.88385 14.8058C4.66233 14.4547 4.31777 14.2398 3.93233 14.1356C3.82343 14.1188 3.71446 14.1024 3.60543 14.0865C3.60106 13.0783 3.59777 12.0702 3.59575 11.0621C3.59479 10.594 3.59347 10.1259 3.59134 9.6578C3.58947 9.24981 3.58827 8.84182 3.58785 8.43382C3.58761 8.21779 3.58704 8.00177 3.58568 7.78575C3.58441 7.58236 3.58402 7.379 3.5843 7.17561C3.58425 7.10102 3.58388 7.02643 3.58316 6.95184C3.58223 6.84983 3.58246 6.7479 3.58297 6.64588C3.58279 6.58885 3.58262 6.53181 3.58244 6.47305C3.61874 6.22405 3.73745 6.07233 3.9119 5.90653C4.13733 5.74217 4.42052 5.71179 4.67972 5.8097Z" fill="#56565D"/>
</svg>
