<svg width="18" height="18" viewBox="0 0 18 18" fill="none" xmlns="http://www.w3.org/2000/svg">
<path d="M16.08 8.2875L9.1875 15.18C8.34312 16.0244 7.19789 16.4988 6.00375 16.4988C4.80962 16.4988 3.66439 16.0244 2.82 15.18C1.97562 14.3356 1.50125 13.1904 1.50125 11.9963C1.50125 10.8021 1.97562 9.65689 2.82 8.8125L9.2475 2.385C9.81043 1.82109 10.5743 1.50389 11.3711 1.50318C12.1679 1.50248 12.9323 1.81833 13.4963 2.38125C14.0602 2.94417 14.3774 3.70806 14.3781 4.50485C14.3788 5.30165 14.0629 6.06609 13.5 6.63L7.0575 13.0575C6.77604 13.339 6.3943 13.4971 5.99625 13.4971C5.59821 13.4971 5.21646 13.339 4.935 13.0575C4.65354 12.776 4.49542 12.3943 4.49542 11.9963C4.49542 11.5982 4.65354 11.2165 4.935 10.935L11.3025 4.575" stroke="#56565D" stroke-linecap="round" stroke-linejoin="round"/>
</svg>
