<svg width="16" height="15" viewBox="0 0 16 15" fill="none" xmlns="http://www.w3.org/2000/svg">
<g clip-path="url(#clip0_120_1632)">
<path d="M9.27812 9.16667C8.34043 8.22898 7.68753 8.125 6.36145 8.125C5.03537 8.125 3.7636 8.65178 2.82592 9.58947C1.88823 10.5271 1.36145 11.7989 1.36145 13.125" stroke="#56565D" stroke-linecap="round" stroke-linejoin="round"/>
<path d="M6.36145 8.125C8.08734 8.125 9.48645 6.72589 9.48645 5C9.48645 3.27411 8.08734 1.875 6.36145 1.875C4.63556 1.875 3.23645 3.27411 3.23645 5C3.23645 6.72589 4.63556 8.125 6.36145 8.125Z" stroke="#56565D" stroke-linecap="round" stroke-linejoin="round"/>
<path d="M11.0802 2.3125C11.522 2.57454 11.8924 2.94145 12.1586 3.38075C12.4248 3.82005 12.5787 4.31821 12.6065 4.83113C12.6343 5.34404 12.5352 5.85591 12.3181 6.32142C12.1009 6.78693 11.7727 7.19171 11.3618 7.49998L11.7784 7.91665" stroke="#56565D" stroke-linecap="round" stroke-linejoin="round"/>
<path d="M12.4243 13.1215C13.4598 13.1215 14.2993 12.3287 14.2993 11.3507C14.2993 10.3727 13.4598 9.57988 12.4243 9.57988C11.3887 9.57988 10.5493 10.3727 10.5493 11.3507C10.5493 12.3287 11.3887 13.1215 12.4243 13.1215Z" stroke="#56565D" stroke-linecap="round" stroke-linejoin="round"/>
<path d="M14.7365 12.1771L14.174 12" stroke="#56565D" stroke-linecap="round" stroke-linejoin="round"/>
<path d="M10.6739 10.7014L10.1115 10.5243" stroke="#56565D" stroke-linecap="round" stroke-linejoin="round"/>
<path d="M11.5494 13.5347L11.7369 13.0034" stroke="#56565D" stroke-linecap="round" stroke-linejoin="round"/>
<path d="M13.1119 9.69792L13.2994 9.16667" stroke="#56565D" stroke-linecap="round" stroke-linejoin="round"/>
<path d="M13.4246 13.5347L13.1746 12.9444" stroke="#56565D" stroke-linecap="round" stroke-linejoin="round"/>
<path d="M11.6741 9.75695L11.4241 9.16667" stroke="#56565D" stroke-linecap="round" stroke-linejoin="round"/>
<path d="M10.1115 12.2951L10.7365 12.059" stroke="#56565D" stroke-linecap="round" stroke-linejoin="round"/>
<path d="M14.1121 10.6424L14.7371 10.4063" stroke="#56565D" stroke-linecap="round" stroke-linejoin="round"/>
</g>
<defs>
<clipPath id="clip0_120_1632">
<rect width="15" height="15" fill="white" transform="translate(0.11145)"/>
</clipPath>
</defs>
</svg>
