<svg width="18" height="18" viewBox="0 0 18 18" fill="none" xmlns="http://www.w3.org/2000/svg">
<path d="M13.5 13.5C14.7426 13.5 15.75 12.4926 15.75 11.25C15.75 10.0074 14.7426 9 13.5 9C12.2574 9 11.25 10.0074 11.25 11.25C11.25 12.4926 12.2574 13.5 13.5 13.5Z" stroke="#56565D" stroke-linecap="round" stroke-linejoin="round"/>
<path d="M6 9.75C7.65685 9.75 9 8.40685 9 6.75C9 5.09315 7.65685 3.75 6 3.75C4.34315 3.75 3 5.09315 3 6.75C3 8.40685 4.34315 9.75 6 9.75Z" stroke="#56565D" stroke-linecap="round" stroke-linejoin="round"/>
<path d="M7.875 10.125C7.1868 9.80953 6.43012 9.6728 5.67503 9.72745C4.91994 9.7821 4.19085 10.0264 3.55524 10.4376C2.91963 10.8489 2.39806 11.4139 2.0388 12.0803C1.67955 12.7467 1.49423 13.493 1.5 14.25" stroke="#56565D" stroke-linecap="round" stroke-linejoin="round"/>
<path d="M16.275 12.3L15.6 12.075" stroke="#56565D" stroke-linecap="round" stroke-linejoin="round"/>
<path d="M11.4 10.425L10.725 10.2" stroke="#56565D" stroke-linecap="round" stroke-linejoin="round"/>
<path d="M12.45 14.025L12.675 13.35" stroke="#56565D" stroke-linecap="round" stroke-linejoin="round"/>
<path d="M14.325 9.15L14.55 8.475" stroke="#56565D" stroke-linecap="round" stroke-linejoin="round"/>
<path d="M14.7 14.025L14.4 13.275" stroke="#56565D" stroke-linecap="round" stroke-linejoin="round"/>
<path d="M12.6 9.225L12.3 8.475" stroke="#56565D" stroke-linecap="round" stroke-linejoin="round"/>
<path d="M10.725 12.45L11.475 12.15" stroke="#56565D" stroke-linecap="round" stroke-linejoin="round"/>
<path d="M15.525 10.35L16.275 10.05" stroke="#56565D" stroke-linecap="round" stroke-linejoin="round"/>
</svg>
