<svg width="18" height="18" viewBox="0 0 18 18" fill="none" xmlns="http://www.w3.org/2000/svg">
<path d="M10.5 14.25C10.5 13.0565 10.0259 11.9119 9.18198 11.068C8.33807 10.2241 7.19347 9.75 6 9.75C4.80653 9.75 3.66193 10.2241 2.81802 11.068C1.97411 11.9119 1.5 13.0565 1.5 14.25" stroke="#56565D" stroke-linecap="round" stroke-linejoin="round"/>
<path d="M6 9.75C7.65685 9.75 9 8.40685 9 6.75C9 5.09315 7.65685 3.75 6 3.75C4.34315 3.75 3 5.09315 3 6.75C3 8.40685 4.34315 9.75 6 9.75Z" stroke="#56565D" stroke-linecap="round" stroke-linejoin="round"/>
<path d="M16.5 14.25C16.5 13.0565 16.0259 11.9119 15.182 11.068C14.3381 10.2241 13.1935 9.75 12 9.75C12.7957 9.75 13.5587 9.43393 14.1213 8.87132C14.6839 8.30871 15 7.54565 15 6.75C15 5.95435 14.6839 5.19129 14.1213 4.62868C13.5587 4.06607 12.7957 3.75 12 3.75" stroke="#56565D" stroke-linecap="round" stroke-linejoin="round"/>
</svg>
