<svg width="19" height="18" viewBox="0 0 19 18" fill="none" xmlns="http://www.w3.org/2000/svg">
<path d="M11.0833 14.25C11.0833 13.0565 10.5829 11.9119 9.69209 11.068C8.80129 10.2241 7.59311 9.75 6.33333 9.75C5.07355 9.75 3.86537 10.2241 2.97457 11.068C2.08377 11.9119 1.58333 13.0565 1.58333 14.25" stroke="#56565D" stroke-linecap="round" stroke-linejoin="round"/>
<path d="M6.33334 9.75C8.08224 9.75 9.5 8.40685 9.5 6.75C9.5 5.09315 8.08224 3.75 6.33334 3.75C4.58444 3.75 3.16667 5.09315 3.16667 6.75C3.16667 8.40685 4.58444 9.75 6.33334 9.75Z" stroke="#56565D" stroke-linecap="round" stroke-linejoin="round"/>
<path d="M15.0417 6V10.5" stroke="#56565D" stroke-linecap="round" stroke-linejoin="round"/>
<path d="M17.4167 8.25H12.6667" stroke="#56565D" stroke-linecap="round" stroke-linejoin="round"/>
</svg>
